<svg width="28" height="17" viewBox="0 0 28 17" fill="none" xmlns="http://www.w3.org/2000/svg">
<path fill-rule="evenodd" clip-rule="evenodd" d="M0.875 8.49996C0.875 8.25132 0.973772 8.01287 1.14959 7.83705C1.3254 7.66124 1.56386 7.56246 1.8125 7.56246H23.9244L18.0238 1.66371C17.8477 1.48768 17.7488 1.24892 17.7488 0.999964C17.7488 0.751009 17.8477 0.512251 18.0238 0.336213C18.1998 0.160176 18.4385 0.0612793 18.6875 0.0612793C18.9365 0.0612793 19.1752 0.160176 19.3512 0.336213L26.8512 7.83621C26.9386 7.9233 27.0078 8.02675 27.0551 8.14065C27.1023 8.25455 27.1267 8.37665 27.1267 8.49996C27.1267 8.62328 27.1023 8.74538 27.0551 8.85928C27.0078 8.97317 26.9386 9.07663 26.8512 9.16371L19.3512 16.6637C19.1752 16.8398 18.9365 16.9386 18.6875 16.9386C18.4385 16.9386 18.1998 16.8398 18.0238 16.6637C17.8477 16.4877 17.7488 16.2489 17.7488 16C17.7488 15.751 17.8477 15.5123 18.0238 15.3362L23.9244 9.43746H1.8125C1.56386 9.43746 1.3254 9.33869 1.14959 9.16288C0.973772 8.98706 0.875 8.7486 0.875 8.49996Z" fill="#1E88E5"/>
</svg>
